HIERARCHY
ROOT Pelvis
{
	OFFSET 0.000000 0.000000 0.000000
	CHANNELS 6 Xposition Yposition Zposition Xrotation Yrotation Zrotation
	JOINT LeftUpLeg_virtual
	{
		OFFSET 0.000000 0.000000 0.000000
		CHANNELS 3 Xrotation Yrotation Zrotation
		JOINT LeftUpLeg
		{
			OFFSET 18.735201 -5.666702 -4.541200
			CHANNELS 3 Xrotation Yrotation Zrotation
			JOINT LeftLeg
			{
				OFFSET -0.021200 -31.938179 0.493100
				CHANNELS 3 Xrotation Yrotation Zrotation
				JOINT LeftFoot
				{
					OFFSET 0.021200 -31.938179 -4.336299
					CHANNELS 3 Xrotation Yrotation Zrotation
					JOINT LeftToeBase
					{
						OFFSET 0.943001 -26.722000 15.023500
						CHANNELS 3 Xrotation Yrotation Zrotation
						End Site
						{
							OFFSET 0 0 0
						}
					}
				}
			}
		}
	}
	JOINT RightUpLeg_virtual
	{
		OFFSET 0.000000 0.000000 0.000000
		CHANNELS 3 Xrotation Yrotation Zrotation
		JOINT RightUpLeg
		{
			OFFSET -18.735201 -5.666702 -4.541200
			CHANNELS 3 Xrotation Yrotation Zrotation
			JOINT RightLeg
			{
				OFFSET 0.018946 -31.938133 0.493100
				CHANNELS 3 Xrotation Yrotation Zrotation
				JOINT RightFoot
				{
					OFFSET -0.018946 -31.938126 -4.336299
					CHANNELS 3 Xrotation Yrotation Zrotation
					JOINT RightToeBase
					{
						OFFSET -0.943001 -26.722004 15.023500
						CHANNELS 3 Xrotation Yrotation Zrotation
						End Site
						{
							OFFSET 0 0 0
						}
					}
				}
			}
		}
	}
	JOINT Hips_virtual
	{
		OFFSET 0.000000 0.000000 0.000000
		CHANNELS 3 Xrotation Yrotation Zrotation
		JOINT Hips
		{
			OFFSET -0.000000 -0.000000 -0.000000
			CHANNELS 3 Xrotation Yrotation Zrotation
			JOINT Spine
			{
				OFFSET 0.000000 10.199997 -0.299500
				CHANNELS 3 Xrotation Yrotation Zrotation
				JOINT Spine1
				{
					OFFSET 0.000000 11.900002 -1.516600
					CHANNELS 3 Xrotation Yrotation Zrotation
					JOINT Spine2
					{
						OFFSET 0.000000 13.600006 -2.842500
						CHANNELS 3 Xrotation Yrotation Zrotation
						JOINT Neck_virtual
						{
							OFFSET 0.000000 0.000000 0.000000
							CHANNELS 3 Xrotation Yrotation Zrotation
							JOINT Neck
							{
								OFFSET 0.000000 9.624100 -2.890100
								CHANNELS 3 Xrotation Yrotation Zrotation
								JOINT Head
								{
									OFFSET 0.000000 14.068802 -1.351900
									CHANNELS 3 Xrotation Yrotation Zrotation
									End Site
									{
										OFFSET 0 0 0
									}
								}
							}
						}
						JOINT LeftShoulder_virtual
						{
							OFFSET 0.000000 0.000000 0.000000
							CHANNELS 3 Xrotation Yrotation Zrotation
							JOINT LeftShoulder
							{
								OFFSET 15.263000 10.923401 -0.547700
								CHANNELS 3 Xrotation Yrotation Zrotation
								JOINT LeftArm
								{
									OFFSET 25.438599 -2.830597 -13.032500
									CHANNELS 3 Xrotation Yrotation Zrotation
									JOINT LeftForeArm
									{
										OFFSET 29.960503 0.000000 0.000000
										CHANNELS 3 Xrotation Yrotation Zrotation
										JOINT LeftHand
										{
											OFFSET 27.849251 0.000000 0.000000
											CHANNELS 3 Xrotation Yrotation Zrotation
											End Site
											{
												OFFSET 0 0 0
											}
										}
									}
								}
							}
						}
						JOINT RightShoulder_virtual
						{
							OFFSET 0.000000 0.000000 0.000000
							CHANNELS 3 Xrotation Yrotation Zrotation
							JOINT RightShoulder
							{
								OFFSET -15.263000 10.923401 -0.547700
								CHANNELS 3 Xrotation Yrotation Zrotation
								JOINT RightArm
								{
									OFFSET -25.438599 -2.830597 -13.032500
									CHANNELS 3 Xrotation Yrotation Zrotation
									JOINT RightForeArm
									{
										OFFSET -29.960503 0.000000 0.000000
										CHANNELS 3 Xrotation Yrotation Zrotation
										JOINT RightHand
										{
											OFFSET -27.849251 0.000000 0.000000
											CHANNELS 3 Xrotation Yrotation Zrotation
											End Site
											{
												OFFSET 0 0 0
											}
										}
									}
								}
							}
						}
					}
				}
			}
		}
	}
}
MOTION
Frames: 11
Frame Time: 0.03333333
1.106774 53.533142 -4.926304 0.000000 0.000000 0.000000 179.824975 -0.448203 162.273287 -93.833132 -21.914722 17.746464 118.386617 -2.215695 0.792013 -22.478591 0.837616 -10.621072 0.000000 0.000000 0.000000 179.000093 -1.787755 164.181697 -64.665957 15.506763 -29.408930 110.096803 7.421423 0.060427 -34.014892 -8.562574 32.878861 0.000000 0.000000 0.000000 179.581888 -1.701550 162.084938 0.827730 -0.282583 0.349407 4.463994 2.352199 -3.346145 8.171478 6.435937 -4.481734 0.000000 0.000000 0.000000 7.284095 7.353759 -4.813235 -0.440345 5.699928 0.946374 0.000000 0.000000 0.000000 8.848735 6.857194 -4.931172 1.166330 -12.987127 -11.134548 -2.298712 -5.249346 -33.148633 42.064885 -37.069452 1.371815 0.000000 0.000000 0.000000 8.045832 6.737192 -5.072567 3.250285 -16.326746 9.393301 13.646814 -16.981852 65.048072 33.277819 48.005404 -7.140958 0.000000 0.000000 0.000000 
1.099788 53.526398 -4.937840 0.000000 0.000000 0.000000 179.814019 -0.452050 162.266758 -93.849982 -21.922827 17.722551 118.376317 -2.205226 0.788280 -22.479208 0.853269 -10.611514 0.000000 0.000000 0.000000 178.990257 -1.800354 164.174334 -64.650302 15.507185 -29.408991 110.080253 7.410584 0.065933 -34.058134 -8.585525 32.864623 0.000000 0.000000 0.000000 179.571151 -1.702253 162.082138 0.825987 -0.280318 0.345400 4.468659 2.351609 -3.348358 8.170169 6.433449 -4.482624 0.000000 0.000000 0.000000 7.279577 7.351990 -4.812071 -0.439719 5.699969 0.947200 0.000000 0.000000 0.000000 8.845892 6.855150 -4.933745 1.163766 -13.001151 -11.156202 -2.305102 -5.275118 -33.147215 42.065694 -37.049712 1.358142 0.000000 0.000000 0.000000 8.042100 6.736006 -5.074910 3.251747 -16.332806 9.412181 13.673834 -16.997284 65.050141 33.297305 47.998687 -7.154757 0.000000 0.000000 0.000000 
1.087415 53.514648 -4.944172 0.000000 0.000000 0.000000 179.785045 -0.462074 162.250310 -93.887698 -21.938708 17.715878 118.376399 -2.197767 0.785822 -22.479372 0.855947 -10.598171 0.000000 0.000000 0.000000 178.960710 -1.823322 164.160277 -64.630856 15.505054 -29.414640 110.050235 7.397125 0.081411 -34.080895 -8.602919 32.878745 0.000000 0.000000 0.000000 179.542519 -1.711491 162.073190 0.824606 -0.278426 0.345143 4.469315 2.347007 -3.350180 8.161688 6.434946 -4.474354 0.000000 0.000000 0.000000 7.270981 7.352495 -4.803034 -0.427968 5.700399 0.944977 0.000000 0.000000 0.000000 8.838467 6.856260 -4.927722 1.155030 -13.037020 -11.202046 -2.298014 -5.287046 -33.124881 42.079115 -37.055009 1.354702 0.000000 0.000000 0.000000 8.028383 6.738152 -5.068096 3.256276 -16.341615 9.398589 13.683896 -16.976930 65.089845 33.305027 47.898921 -7.151080 0.000000 0.000000 0.000000 
1.072207 53.503342 -4.944145 0.000000 0.000000 0.000000 179.743982 -0.486201 162.228741 -93.939826 -21.962823 17.721802 118.377765 -2.195241 0.783663 -22.475023 0.843691 -10.581523 0.000000 0.000000 0.000000 178.918308 -1.857639 164.141098 -64.604068 15.502836 -29.422450 110.014526 7.381176 0.101382 -34.071586 -8.610549 32.922758 0.000000 0.000000 0.000000 179.502781 -1.734241 162.060267 0.822745 -0.273350 0.348317 4.466375 2.340430 -3.351586 8.150017 6.441439 -4.458338 0.000000 0.000000 0.000000 7.262094 7.357557 -4.787734 -0.406901 5.700385 0.940532 0.000000 0.000000 0.000000 8.830431 6.862196 -4.913531 1.142505 -13.090045 -11.257628 -2.280655 -5.285698 -33.081792 42.102512 -37.090697 1.365239 0.000000 0.000000 0.000000 8.010434 6.745183 -5.053525 3.264219 -16.358926 9.353252 13.662333 -16.921341 65.160059 33.297770 47.708011 -7.129211 0.000000 0.000000 0.000000 
1.054610 53.495224 -4.940937 0.000000 0.000000 0.000000 179.698807 -0.528890 162.203852 -94.003914 -21.993419 17.729330 118.370580 -2.196742 0.776913 -22.455034 0.817504 -10.557218 0.000000 0.000000 0.000000 178.872546 -1.905372 164.117425 -64.559317 15.499451 -29.428724 109.974419 7.359241 0.123219 -34.050737 -8.617031 32.981020 0.000000 0.000000 0.000000 179.458753 -1.772824 162.042782 0.822255 -0.270682 0.349457 4.461973 2.332701 -3.352467 8.141136 6.453206 -4.437376 0.000000 0.000000 0.000000 7.256871 7.368560 -4.768331 -0.379866 5.698972 0.935240 0.000000 0.000000 0.000000 8.828144 6.874030 -4.893253 1.127720 -13.156690 -11.314472 -2.262014 -5.273781 -33.021079 42.130854 -37.153784 1.387585 0.000000 0.000000 0.000000 7.994982 6.757914 -5.034118 3.274761 -16.392768 9.280393 13.600960 -16.834618 65.249453 33.282860 47.444536 -7.099064 0.000000 0.000000 0.000000 
1.037765 53.491333 -4.935299 0.000000 0.000000 0.000000 179.656733 -0.593915 162.176326 -94.080433 -22.027063 17.727717 118.351018 -2.200290 0.762669 -22.409511 0.780959 -10.518775 0.000000 0.000000 0.000000 178.831127 -1.969725 164.089025 -64.487272 15.490743 -29.433481 109.933978 7.327644 0.147121 -34.041349 -8.632456 33.042632 0.000000 0.000000 0.000000 179.416871 -1.834330 162.017811 0.823814 -0.268872 0.351841 4.459264 2.325064 -3.351672 8.141918 6.469775 -4.414604 0.000000 0.000000 0.000000 7.260920 7.385554 -4.747924 -0.351418 5.695285 0.931808 0.000000 0.000000 0.000000 8.838354 6.890574 -4.870631 1.113351 -13.231400 -11.361427 -2.259104 -5.260195 -32.952760 42.150822 -37.229063 1.411827 0.000000 0.000000 0.000000 7.990106 6.775201 -5.013253 3.287948 -16.447936 9.191621 13.497268 -16.715896 65.354262 33.264121 47.129275 -7.067636 0.000000 0.000000 0.000000 
1.022442 53.490963 -4.928944 0.000000 0.000000 0.000000 179.621312 -0.684035 162.145713 -94.167593 -22.061794 17.711152 118.323397 -2.204448 0.744108 -22.337586 0.736903 -10.464256 0.000000 0.000000 0.000000 178.798083 -2.049938 164.053371 -64.384273 15.473462 -29.438460 109.891945 7.288190 0.174436 -34.039283 -8.657694 33.110028 0.000000 0.000000 0.000000 179.381490 -1.916461 161.984712 0.827378 -0.265835 0.353137 4.459784 2.318703 -3.347185 8.155364 6.489628 -4.392616 0.000000 0.000000 0.000000 7.277605 7.406710 -4.728765 -0.324706 5.688435 0.932726 0.000000 0.000000 0.000000 8.863213 6.910536 -4.849054 1.100839 -13.310873 -11.395221 -2.298429 -5.244134 -32.893013 42.156778 -37.303683 1.434403 0.000000 0.000000 0.000000 8.001246 6.795368 -4.993986 3.305504 -16.526469 9.099315 13.364115 -16.562078 65.479815 33.244764 46.777309 -7.040041 0.000000 0.000000 0.000000 
1.007123 53.493393 -4.923435 0.000000 0.000000 0.000000 179.594661 -0.789574 162.109595 -94.262887 -22.096249 17.682807 118.293071 -2.209256 0.726822 -22.244750 0.686473 -10.397754 0.000000 0.000000 0.000000 178.773522 -2.145550 164.011092 -64.260428 15.450064 -29.443115 109.850247 7.244075 0.203190 -34.031172 -8.688791 33.185201 0.000000 0.000000 0.000000 179.354033 -2.012438 161.942897 0.831119 -0.261066 0.353875 4.464909 2.313679 -3.338050 8.182557 6.511039 -4.373330 0.000000 0.000000 0.000000 7.309487 7.429478 -4.713657 -0.302602 5.677984 0.939564 0.000000 0.000000 0.000000 8.903424 6.932373 -4.831455 1.091682 -13.388665 -11.415568 -2.392063 -5.226062 -32.849747 42.143104 -37.367664 1.451727 0.000000 0.000000 0.000000 8.030126 6.816544 -4.978377 3.327932 -16.627508 9.014531 13.216705 -16.371376 65.627627 33.226674 46.401764 -7.019027 0.000000 0.000000 0.000000 
0.991190 53.496403 -4.917191 0.000000 0.000000 0.000000 179.575468 -0.900280 162.067289 -94.360621 -22.130959 17.652889 118.267280 -2.216699 0.713988 -22.135139 0.632135 -10.329005 0.000000 0.000000 0.000000 178.754684 -2.249582 163.961669 -64.123373 15.423517 -29.451195 109.812360 7.199277 0.231204 -34.019591 -8.725323 33.261959 0.000000 0.000000 0.000000 179.334444 -2.110386 161.891603 0.834313 -0.255943 0.354640 4.474500 2.310951 -3.323704 8.221946 6.531372 -4.357441 0.000000 0.000000 0.000000 7.355817 7.451586 -4.703235 -0.286394 5.664119 0.952259 0.000000 0.000000 0.000000 8.956822 6.953610 -4.819448 1.086839 -13.458825 -11.423917 -2.530469 -5.207911 -32.828314 42.105149 -37.416534 1.461302 0.000000 0.000000 0.000000 8.074937 6.836727 -4.967142 3.354272 -16.745776 8.941559 13.061892 -16.143695 65.790247 33.207348 46.014196 -7.001906 0.000000 0.000000 0.000000 
0.974058 53.496284 -4.908028 0.000000 0.000000 0.000000 179.560551 -1.009270 162.016240 -94.454816 -22.166281 17.629289 118.252322 -2.225890 0.704811 -22.016609 0.578327 -10.264817 0.000000 0.000000 0.000000 178.739384 -2.354565 163.905183 -63.976155 15.399418 -29.462424 109.777293 7.158592 0.256524 -34.011747 -8.766870 33.336405 0.000000 0.000000 0.000000 179.320715 -2.202313 161.832549 0.837206 -0.253343 0.354195 4.486192 2.309573 -3.305460 8.270454 6.548986 -4.344671 0.000000 0.000000 0.000000 7.412253 7.471038 -4.696062 -0.275295 5.648082 0.968948 0.000000 0.000000 0.000000 9.018584 6.972932 -4.812229 1.084911 -13.516954 -11.423923 -2.686079 -5.191783 -32.822542 42.052051 -37.458059 1.467891 0.000000 0.000000 0.000000 8.130328 6.854608 -4.959891 3.382221 -16.873668 8.876900 12.902773 -15.891953 65.953010 33.186643 45.629127 -6.988308 0.000000 0.000000 0.000000 
0.958458 53.493126 -4.897038 0.000000 0.000000 0.000000 179.548557 -1.109079 161.956612 -94.538745 -22.201870 17.614090 118.250478 -2.233735 0.696843 -21.898647 0.531777 -10.206384 0.000000 0.000000 0.000000 178.726229 -2.454256 163.845064 -63.826356 15.382443 -29.475862 109.742316 7.125328 0.278329 -34.016128 -8.812228 33.410331 0.000000 0.000000 0.000000 179.310730 -2.288596 161.767922 0.836899 -0.250757 0.353152 4.498199 2.310304 -3.285842 8.324755 6.563547 -4.334321 0.000000 0.000000 0.000000 7.473640 7.487432 -4.690506 -0.268552 5.631455 0.987497 0.000000 0.000000 0.000000 9.084493 6.988783 -4.808444 1.084650 -13.558876 -11.420569 -2.824045 -5.191034 -32.819694 41.985996 -37.493101 1.469299 0.000000 0.000000 0.000000 8.190432 6.869584 -4.956001 3.409277 -17.004255 8.819046 12.739624 -15.633972 66.097107 33.164052 45.267615 -6.979073 0.000000 0.000000 0.000000 
